<?xml version="1.0" encoding="UTF-8"?>
<svg id="Layer_1" data-name="Layer 1" xmlns="http://www.w3.org/2000/svg" viewBox="0 0 751.54 216.87">
  <defs>
    <style>
      .cls-1 {
        fill: #5a6e7f;
      }

      .cls-2 {
        fill: red;
      }

      .cls-3 {
        fill: #4caf50;
      }
    </style>
  </defs>
  <g>
    <path class="cls-3" d="M227.38,133.64v-50.4h31.75v7.06h-23.98v14.47h21.96v7.06h-21.96v14.76h24.34v7.06h-32.11Z"/>
    <path class="cls-3" d="M267.63,133.64v-50.4h14.98l13.68,45.22h1.15v-45.22h7.7v50.4h-14.98l-13.68-45.29h-1.15v45.29h-7.7Z"/>
    <path class="cls-3" d="M315.65,133.64v-50.4h31.75v7.06h-23.98v14.47h21.96v7.06h-21.96v14.76h24.34v7.06h-32.11Z"/>
    <path class="cls-3" d="M355.9,133.64v-50.4h21.17c3.12,0,5.87.54,8.24,1.62,2.38,1.08,4.22,2.63,5.54,4.64,1.32,2.02,1.98,4.42,1.98,7.2v.79c0,3.17-.76,5.7-2.27,7.6-1.51,1.9-3.35,3.23-5.51,4v1.15c1.82.1,3.29.71,4.39,1.84,1.1,1.13,1.66,2.75,1.66,4.86v16.7h-7.85v-15.62c0-1.3-.34-2.33-1.01-3.1-.67-.77-1.75-1.15-3.24-1.15h-15.34v19.87h-7.78ZM363.68,106.71h12.53c2.78,0,4.94-.71,6.48-2.12,1.54-1.42,2.3-3.35,2.3-5.8v-.58c0-2.45-.76-4.38-2.27-5.8-1.51-1.42-3.68-2.12-6.52-2.12h-12.53v16.42Z"/>
    <path class="cls-3" d="M418.9,134.64c-3.6,0-6.82-.78-9.65-2.34-2.83-1.56-5.06-3.85-6.7-6.88-1.63-3.02-2.45-6.72-2.45-11.09v-11.81c0-6.58,1.8-11.6,5.4-15.08,3.6-3.48,8.47-5.22,14.62-5.22s10.7,1.65,13.97,4.93c3.26,3.29,4.9,7.69,4.9,13.21v.36h-7.7v-.58c0-2.06-.41-3.92-1.22-5.58-.82-1.66-2.04-2.96-3.67-3.92-1.63-.96-3.72-1.44-6.26-1.44-3.84,0-6.84,1.16-9,3.49-2.16,2.33-3.24,5.56-3.24,9.68v12.1c0,4.08,1.08,7.31,3.24,9.68,2.16,2.38,5.18,3.56,9.07,3.56s6.65-1.06,8.42-3.17c1.78-2.11,2.66-4.85,2.66-8.21v-.94h-13.54v-6.7h21.24v24.91h-7.2v-5.11h-1.15c-.43.91-1.07,1.85-1.91,2.81-.84.96-2.04,1.75-3.6,2.38-1.56.62-3.64.94-6.23.94Z"/>
    <path class="cls-3" d="M459.65,133.64v-18.29l-17.5-32.11h8.78l12.1,22.82h1.08l12.1-22.82h8.78l-17.5,32.11v18.29h-7.85Z"/>
    <path class="cls-3" d="M503.07,133.64v-43.34h-15.48v-7.06h38.74v7.06h-15.48v43.34h-7.78Z"/>
    <path class="cls-3" d="M533.38,133.64v-50.4h21.17c3.12,0,5.87.54,8.24,1.62,2.38,1.08,4.22,2.63,5.54,4.64,1.32,2.02,1.98,4.42,1.98,7.2v.79c0,3.17-.76,5.7-2.27,7.6-1.51,1.9-3.35,3.23-5.51,4v1.15c1.82.1,3.29.71,4.39,1.84,1.1,1.13,1.66,2.75,1.66,4.86v16.7h-7.85v-15.62c0-1.3-.34-2.33-1.01-3.1-.67-.77-1.75-1.15-3.24-1.15h-15.34v19.87h-7.78ZM541.16,106.71h12.53c2.78,0,4.94-.71,6.48-2.12,1.54-1.42,2.3-3.35,2.3-5.8v-.58c0-2.45-.76-4.38-2.27-5.8-1.51-1.42-3.68-2.12-6.52-2.12h-12.53v16.42Z"/>
    <path class="cls-3" d="M575.14,133.64l14.4-50.4h13.68l14.33,50.4h-7.99l-3.31-11.88h-19.73l-3.31,11.88h-8.06ZM588.46,114.56h15.84l-7.34-26.5h-1.15l-7.34,26.5Z"/>
    <path class="cls-3" d="M642.53,134.64c-6.14,0-11.02-1.74-14.62-5.22-3.6-3.48-5.4-8.51-5.4-15.08v-11.81c0-6.58,1.8-11.6,5.4-15.08,3.6-3.48,8.47-5.22,14.62-5.22s10.72,1.68,14,5.04c3.29,3.36,4.93,7.94,4.93,13.75v.43h-7.7v-.65c0-3.41-.92-6.19-2.77-8.35s-4.67-3.24-8.46-3.24-6.84,1.16-9,3.49c-2.16,2.33-3.24,5.56-3.24,9.68v12.1c0,4.08,1.08,7.3,3.24,9.65,2.16,2.35,5.16,3.53,9,3.53s6.61-1.09,8.46-3.28c1.85-2.18,2.77-4.96,2.77-8.32v-1.22h7.7v1.01c0,5.81-1.64,10.39-4.93,13.75-3.29,3.36-7.96,5.04-14,5.04Z"/>
    <path class="cls-3" d="M670.1,133.64v-50.4h7.78v20.95h1.15l18.79-20.95h10.15l-22.75,24.84,23.54,25.56h-10.44l-19.3-21.38h-1.15v21.38h-7.78Z"/>
    <path class="cls-3" d="M714.6,133.64v-50.4h21.17c3.12,0,5.87.54,8.24,1.62,2.38,1.08,4.22,2.63,5.54,4.64,1.32,2.02,1.98,4.42,1.98,7.2v.79c0,3.17-.76,5.7-2.27,7.6-1.51,1.9-3.35,3.23-5.51,4v1.15c1.82.1,3.29.71,4.39,1.84,1.1,1.13,1.66,2.75,1.66,4.86v16.7h-7.85v-15.62c0-1.3-.34-2.33-1.01-3.1-.67-.77-1.75-1.15-3.24-1.15h-15.34v19.87h-7.78ZM722.38,106.71h12.53c2.78,0,4.94-.71,6.48-2.12,1.54-1.42,2.3-3.35,2.3-5.8v-.58c0-2.45-.76-4.38-2.27-5.8-1.51-1.42-3.68-2.12-6.52-2.12h-12.53v16.42Z"/>
  </g>
  <g>
    <path class="cls-1" d="M13.52,94.29c-.21,1.2.75,2.3,1.97,2.3h13.26c.94,0,1.74-.67,1.92-1.59,6.17-31.18,31.21-55.87,62.89-61.99.93-.18,1.6-.97,1.6-1.92v-13.14c0-1.22-1.09-2.17-2.29-1.97C52.24,22.68,20.26,54.26,13.52,94.29Z"/>
    <path class="cls-1" d="M189.11,121.19c-.96,0-1.76.7-1.92,1.64-5.57,32.36-31.34,58.05-64.05,64.01-.94.17-1.62.97-1.62,1.92v13.15c0,1.21,1.08,2.16,2.28,1.97,41.77-6.45,74.57-39.11,80.62-80.43.18-1.19-.77-2.26-1.98-2.26h-13.32Z"/>
    <path class="cls-3" d="M158.49,121.19c-.89,0-1.65.6-1.88,1.45-4.51,16.22-17.36,29.14-33.68,34-.83.25-1.42,1-1.42,1.87v13.2c0,1.26,1.18,2.23,2.4,1.95,25.02-5.76,44.44-25.24,49.82-50.08.26-1.23-.7-2.38-1.95-2.38h-13.29Z"/>
    <path class="cls-1" d="M108.63,216.87h0c2.2,0,4.28-.84,5.85-2.39,1.58-1.55,2.45-3.62,2.45-5.82v-64.64c13.04-3.07,23.26-13.14,26.37-26l66.32-.11c4.59,0,8.33-3.7,8.33-8.24,0-2.21-.88-4.28-2.46-5.84-1.57-1.54-3.65-2.39-5.89-2.39l-66.29.13c-3.12-12.84-13.33-22.89-26.37-25.93V8.2c0-4.52-3.72-8.2-8.32-8.2-4.56.03-8.28,3.72-8.28,8.24v67.43c-13.01,3.08-23.23,13.16-26.33,26l-65.71.13c-4.56,0-8.28,3.69-8.28,8.21,0,2.2.87,4.26,2.44,5.81,1.56,1.54,3.63,2.39,5.85,2.39l65.7-.1c3.12,12.83,13.32,22.87,26.33,25.92v64.62c0,4.53,3.73,8.22,8.3,8.22ZM83.45,110.31c0-14.1,11.43-25.52,25.52-25.52s25.52,11.43,25.52,25.52-11.42,25.52-25.52,25.52-25.52-11.42-25.52-25.52Z"/>
    <path class="cls-1" d="M123.78,15.77c-1.19-.18-2.27.77-2.27,1.98v13.14c0,.95.69,1.75,1.63,1.92,32.26,5.79,57.78,30.8,63.82,62.52.17.93.97,1.61,1.92,1.61h13.37c1.21,0,2.17-1.09,1.97-2.29-6.55-40.68-39.11-72.61-80.43-78.88Z"/>
    <path class="cls-3" d="M121.51,47.93v13.21c0,.88.59,1.63,1.42,1.87,15.85,4.67,28.41,16.97,33.25,32.52.26.83,1,1.4,1.87,1.4h13.43c1.26,0,2.23-1.19,1.94-2.42-5.8-24.15-24.97-42.95-49.5-48.54-1.23-.28-2.4.68-2.4,1.94Z"/>
    <path class="cls-3" d="M61.14,124c-.26-.83-1-1.4-1.87-1.4h-13.35c-1.26,0-2.23,1.18-1.94,2.41,5.78,24.31,25.11,43.24,49.85,48.75,1.22.27,2.39-.69,2.39-1.94v-13.16c0-.88-.59-1.63-1.43-1.88-16.05-4.61-28.8-17.05-33.64-32.78Z"/>
    <path class="cls-1" d="M30.56,124.2c-.17-.93-.97-1.61-1.92-1.61h-13.28c-1.21,0-2.16,1.09-1.97,2.28,6.5,40.74,39.15,72.81,80.56,79.06,1.2.18,2.27-.77,2.27-1.97v-13.14c0-.96-.69-1.76-1.63-1.92-32.38-5.74-58.03-30.88-64.02-62.7Z"/>
    <path class="cls-3" d="M92.73,46.2c-23.99,5.83-42.74,24.31-48.63,47.96-.31,1.24.66,2.43,1.93,2.43h13.43c.86,0,1.6-.56,1.87-1.38,4.87-15.12,17.06-27.13,32.42-31.94.83-.26,1.39-1,1.39-1.87v-13.27c0-1.27-1.19-2.24-2.42-1.94Z"/>
  </g>
  <g>
    <path class="cls-1" d="M112.19,102.6c.95.61,2.08.97,3.29.97,3.36,0,6.09-2.73,6.09-6.08s-2.73-6.08-6.09-6.08-6.09,2.73-6.09,6.08c0,.56.08,1.11.23,1.63l-3.61,2.56-5.72,4.06c-.85-.45-1.82-.71-2.86-.71-3.36,0-6.09,2.73-6.09,6.08s2.73,6.08,6.09,6.08c1.45,0,2.78-.51,3.83-1.36l4.75,3.37,3.61,2.56c-.15.52-.23,1.06-.23,1.63,0,3.35,2.73,6.08,6.09,6.08s6.09-2.73,6.09-6.08-2.73-6.08-6.09-6.08c-1.21,0-2.35.36-3.3.98l-5.17-3.67-3.57-2.54c.05-.32.08-.64.08-.97,0-.74-.14-1.44-.38-2.09l3.87-2.74,5.17-3.67ZM115.35,94c1.89,0,3.43,1.53,3.43,3.43s-1.54,3.43-3.43,3.43-3.43-1.53-3.43-3.43,1.54-3.43,3.43-3.43ZM97.37,114.73c-1.89,0-3.43-1.53-3.43-3.43s1.53-3.43,3.43-3.43,3.43,1.53,3.43,3.43-1.53,3.43-3.43,3.43ZM115.35,120c1.89,0,3.43,1.53,3.43,3.43s-1.54,3.43-3.43,3.43-3.43-1.53-3.43-3.43,1.54-3.43,3.43-3.43Z"/>
    <path class="cls-2" d="M111.92,123.43c0,1.89,1.54,3.43,3.43,3.43s3.43-1.53,3.43-3.43-1.54-3.43-3.43-3.43-3.43,1.53-3.43,3.43Z"/>
    <path class="cls-2" d="M93.94,111.3c0,1.89,1.53,3.43,3.43,3.43s3.43-1.53,3.43-3.43-1.53-3.43-3.43-3.43-3.43,1.53-3.43,3.43Z"/>
    <path class="cls-2" d="M111.92,97.43c0,1.89,1.54,3.43,3.43,3.43s3.43-1.53,3.43-3.43-1.54-3.43-3.43-3.43-3.43,1.53-3.43,3.43Z"/>
  </g>
</svg>